<?xml version="1.0" encoding="UTF-8" standalone="no"?><!DOCTYPE svg PUBLIC "-//W3C//DTD SVG 1.1//EN" "http://www.w3.org/Graphics/SVG/1.1/DTD/svg11.dtd"><svg width="100%" height="100%" viewBox="0 0 3334 3334" version="1.1" xmlns="http://www.w3.org/2000/svg" xmlns:xlink="http://www.w3.org/1999/xlink" xml:space="preserve" xmlns:serif="http://www.serif.com/" style="fill-rule:evenodd;clip-rule:evenodd;stroke-linecap:round;stroke-linejoin:round;stroke-miterlimit:1.5;"><path d="M1185.26,1282.76c-12.615,6.953 -32.931,4.906 -47.148,12.24c-33.813,17.444 -77.869,46.483 -103.12,75.058c-159.196,180.154 -81.562,446.432 25.959,631.222c141.662,243.467 301.25,442.665 592.337,470.574c67.48,6.47 139.644,10.774 206.556,-2.452c308.703,-61.016 418.463,-315.858 418.463,-603.68c-0,-61.617 5.823,-126.366 -3.476,-187.416c-22.968,-150.799 -130.188,-320.857 -251.483,-412.787c-52.665,-39.915 -111.831,-81.78 -175.937,-100.559c-119.778,-35.088 -354.888,-30.12 -470.971,30.578c-52.324,27.359 -122.746,131.804 -175.114,138.088" style="fill:none;stroke:#000;stroke-width:91.67px;"/><path d="M1320.73,1672.71c12.193,0 3.15,23.768 10.976,32.377" style="fill:none;stroke:#000;stroke-width:91.67px;"/><path d="M1925.69,1675.59c3.677,2.732 1.481,20.133 5.487,26.615" style="fill:none;stroke:#000;stroke-width:91.67px;"/><path d="M1443.17,1889.46c-17.791,2.427 12.804,34.454 16.919,38.78c24.463,25.723 61.909,56.895 105.526,66.22c127.11,27.176 279.582,26.172 295.081,-83.099" style="fill:none;stroke:#000;stroke-width:91.67px;"/><path d="M943.698,1492.7c0.214,0.912 26.109,-42.154 27.286,-44.791c13.737,-30.793 26.386,-61.43 41.629,-90.628c17.754,-34.008 87.798,-240.034 109.263,-254.293c5.248,-3.486 5.05,11.258 5.305,14.1c2.929,32.665 6.065,134.17 12.499,140.793c6.53,6.722 29.977,-95.7 34.039,-92.489c10.151,8.026 -11.388,100.61 8.17,93.28c47.279,-17.717 81.816,-205.927 104.63,-217.088c5.884,-2.879 -5.915,108.959 26.127,91.256c67.445,-37.262 119.522,-266.362 202.536,-277.328c31.595,-4.174 23.552,56.485 50.837,62.101c83.993,17.291 173.203,-32.374 255.857,-10.47c35.36,9.371 66.832,25.406 103.944,19.638c49.838,-7.745 107.216,-61.007 159.094,-32.715c47.337,25.817 23.618,176.221 40.135,196.008c15.282,18.307 41.299,-52.518 61.69,-39.066c12.662,8.352 -0.449,174.966 6.783,207.874c12.952,58.935 22.453,96.662 22.453,162.688c0,1.092 0.35,56.104 -1.616,55.447c-21.036,-7.024 -44.474,-50.286 -65.881,-64.312c-137.515,-90.098 -125.954,-234.862 -257.351,-109.745c-46.564,44.338 -239.581,131.8 -325.108,-0c-73.685,-113.549 -281.388,-28.722 -384.13,54.321c-26.842,21.696 -101.717,71.735 -129.324,88.906c-34.376,21.384 -76.784,22.956 -108.867,46.513Z" style="stroke:#000;stroke-width:91.67px;"/><path d="M2329.96,1925.98c27.188,-0 49.078,-10.082 71.336,-25.213c20.359,-13.841 37.906,-32.286 48.647,-54.552c10.673,-22.128 24.535,-58.907 18.001,-84.156c-6.605,-25.525 -73.126,-59.242 -97.931,-61.401c-18.65,-1.624 -91.916,-4.278 -91.916,26.266" style="fill:none;stroke:#000;stroke-width:91.67px;"/><path d="M936.435,1703.29c0.415,-0 -6.286,-0 -7.179,-0c-4.627,-0 -10.485,-1.046 -14.927,0.505c-13.554,4.733 -21.721,22.915 -25.861,35.453c-13.908,42.128 -31.123,130.363 -22.391,174.864c1.859,9.476 26.496,12.326 33.917,14.412c31.637,8.893 81.107,21.345 109.302,-3.326" style="fill:none;stroke:#000;stroke-width:91.67px;"/><g id="Hat"><path d="M1966.91,1274.92c61.032,-7.143 167.382,73.877 268.972,39.396c12.126,-4.116 20.013,-38.093 23.959,-49.142c32.714,-91.591 -37.876,-125.499 -117.068,-160.059c-259.444,-113.221 -423.867,-236.859 -719.493,-227.88c-36.8,1.117 -188.577,-4.178 -207.967,24.34c-12.479,18.354 -49.342,62.378 -51.137,83.482c-2.168,25.474 -3.701,87.133 12.777,109.172c30.099,40.256 138.23,27.404 178.903,54.458c104.728,69.66 482.216,141.313 611.054,126.233Z" style="fill:#fff;stroke:#000;stroke-width:91.67px;"/><path d="M2209.77,1127.96c-4.528,-38.686 106.64,-147.98 151.942,-126.402c24.504,11.671 37.009,53.249 50.434,74.25c47.254,73.918 85.224,142.647 79.265,234.99c-2.603,40.331 -25.25,86.861 -13.923,127.171c0.368,1.31 18.967,-1.175 21.323,-0.895c16.355,1.946 32.778,7.091 49.116,9.692c13.675,2.177 56.327,16.689 70.242,10.909c43.54,-18.084 94.558,-144.221 106.839,-188.533c15.65,-56.464 -102.553,-244.612 -106.839,-302.875c-6.065,-82.443 -23.649,-196.995 -70.242,-251.808c-70.998,-83.524 -128.831,-205.97 -240.547,-233.861c-144.629,-36.109 -193.691,-83.796 -338.82,-66.81c-31.038,3.633 -453.64,122.679 -510.649,237.654c-19.502,39.331 -140.333,180.436 -144.257,226.213c286.089,-3.222 647.248,76.25 896.116,250.305Z" style="fill:#f91b00;stroke:#000;stroke-width:91.67px;"/><path d="M2382.05,1026.67c-2.581,-22.048 -57.14,-106.46 -74.666,-120.803" style="fill:none;stroke:#000;stroke-width:91.67px;"/><path d="M2516.31,1298.94c-30.014,-0 -65.541,21.223 -91.124,42.038c-25.327,20.608 -51.499,127.815 -43.134,151.735c26.078,74.571 92.016,113.076 184.097,125.554c27.252,3.693 46.13,-5.37 70.714,-15.313c51.949,-21.008 87.567,-38.91 99.125,-96.765c1.922,-9.615 4.919,-23.886 2.383,-33.673c-3.846,-14.843 8.296,-43.33 -2.383,-53.358c-12.641,-11.871 -32.802,-46.348 -48.168,-55.083c-24.748,-14.068 -46.534,-29.883 -72.363,-41.179c-17.726,-7.753 -79.966,-21.28 -99.147,-23.956Z" style="fill:#fff;stroke:#000;stroke-width:91.67px;"/></g></svg>